<mxfile host="app.diagrams.net" modified="2022-11-10T11:36:31.137Z" agent="5.0 (Windows NT 10.0; Win64; x64) AppleWebKit/537.36 (KHTML, like Gecko) Chrome/107.0.0.0 Safari/537.36" etag="M8fvS-_WDGuDEiyiMZnB" version="20.5.3" type="github">
  <diagram id="33QZZ4nBsRrXYEMg8t2g" name="Page-1">
    <mxGraphModel dx="1866" dy="1138" grid="0" gridSize="10" guides="1" tooltips="1" connect="1" arrows="1" fold="1" page="1" pageScale="1" pageWidth="1920" pageHeight="1200" math="0" shadow="0">
      <root>
        <mxCell id="0" />
        <mxCell id="1" parent="0" />
        <mxCell id="ojgTtji4bl1sdhofvII4-1" value="Látogató" style="shape=umlActor;verticalLabelPosition=bottom;verticalAlign=top;html=1;" vertex="1" parent="1">
          <mxGeometry x="155" y="179" width="78" height="136" as="geometry" />
        </mxCell>
        <mxCell id="ojgTtji4bl1sdhofvII4-2" value="Regisztráció" style="ellipse;whiteSpace=wrap;html=1;" vertex="1" parent="1">
          <mxGeometry x="361" y="105" width="140" height="70" as="geometry" />
        </mxCell>
        <mxCell id="ojgTtji4bl1sdhofvII4-3" value="Bejelentkezés" style="ellipse;whiteSpace=wrap;html=1;" vertex="1" parent="1">
          <mxGeometry x="371" y="210" width="140" height="70" as="geometry" />
        </mxCell>
        <mxCell id="ojgTtji4bl1sdhofvII4-8" value="Emlékezz rám" style="ellipse;whiteSpace=wrap;html=1;" vertex="1" parent="1">
          <mxGeometry x="476" y="304" width="140" height="70" as="geometry" />
        </mxCell>
        <mxCell id="ojgTtji4bl1sdhofvII4-9" value="Extends" style="endArrow=block;endSize=16;endFill=0;html=1;rounded=0;exitX=0.45;exitY=0;exitDx=0;exitDy=0;exitPerimeter=0;entryX=1;entryY=1;entryDx=0;entryDy=0;" edge="1" parent="1" source="ojgTtji4bl1sdhofvII4-8" target="ojgTtji4bl1sdhofvII4-3">
          <mxGeometry width="160" relative="1" as="geometry">
            <mxPoint x="918" y="308" as="sourcePoint" />
            <mxPoint x="1078" y="308" as="targetPoint" />
          </mxGeometry>
        </mxCell>
        <mxCell id="ojgTtji4bl1sdhofvII4-11" value="" style="endArrow=classic;html=1;rounded=0;entryX=0;entryY=0.5;entryDx=0;entryDy=0;exitX=0.5;exitY=0.5;exitDx=0;exitDy=0;exitPerimeter=0;" edge="1" parent="1" source="ojgTtji4bl1sdhofvII4-1" target="ojgTtji4bl1sdhofvII4-3">
          <mxGeometry width="50" height="50" relative="1" as="geometry">
            <mxPoint x="320" y="452" as="sourcePoint" />
            <mxPoint x="370" y="402" as="targetPoint" />
            <Array as="points" />
          </mxGeometry>
        </mxCell>
        <mxCell id="ojgTtji4bl1sdhofvII4-12" value="" style="endArrow=classic;html=1;rounded=0;exitX=0.5;exitY=0.5;exitDx=0;exitDy=0;exitPerimeter=0;entryX=0;entryY=0.5;entryDx=0;entryDy=0;" edge="1" parent="1" source="ojgTtji4bl1sdhofvII4-1" target="ojgTtji4bl1sdhofvII4-2">
          <mxGeometry width="50" height="50" relative="1" as="geometry">
            <mxPoint x="973" y="333" as="sourcePoint" />
            <mxPoint x="1023" y="283" as="targetPoint" />
          </mxGeometry>
        </mxCell>
        <mxCell id="ojgTtji4bl1sdhofvII4-13" value="Bejelentkezett felhasználó" style="shape=umlActor;verticalLabelPosition=bottom;verticalAlign=top;html=1;outlineConnect=0;" vertex="1" parent="1">
          <mxGeometry x="171" y="585" width="74" height="148" as="geometry" />
        </mxCell>
        <mxCell id="ojgTtji4bl1sdhofvII4-14" value="Saját mappák listázása" style="ellipse;whiteSpace=wrap;html=1;" vertex="1" parent="1">
          <mxGeometry x="376" y="530" width="140" height="70" as="geometry" />
        </mxCell>
        <mxCell id="ojgTtji4bl1sdhofvII4-15" value="Jegyzet megjelenítése" style="ellipse;whiteSpace=wrap;html=1;" vertex="1" parent="1">
          <mxGeometry x="571" y="457" width="140" height="70" as="geometry" />
        </mxCell>
        <mxCell id="ojgTtji4bl1sdhofvII4-16" value="Extends" style="endArrow=block;endSize=16;endFill=0;html=1;rounded=0;exitX=0;exitY=0.5;exitDx=0;exitDy=0;entryX=0.779;entryY=0.1;entryDx=0;entryDy=0;entryPerimeter=0;" edge="1" parent="1" source="ojgTtji4bl1sdhofvII4-15" target="ojgTtji4bl1sdhofvII4-14">
          <mxGeometry width="160" relative="1" as="geometry">
            <mxPoint x="696.5" y="748.25" as="sourcePoint" />
            <mxPoint x="647.9974746830585" y="713.9987373415292" as="targetPoint" />
          </mxGeometry>
        </mxCell>
        <mxCell id="ojgTtji4bl1sdhofvII4-17" value="Jegyzetre kattintás" style="ellipse;whiteSpace=wrap;html=1;" vertex="1" parent="1">
          <mxGeometry x="371" y="653" width="140" height="70" as="geometry" />
        </mxCell>
        <mxCell id="ojgTtji4bl1sdhofvII4-18" value="Módosítás" style="ellipse;whiteSpace=wrap;html=1;" vertex="1" parent="1">
          <mxGeometry x="576" y="600" width="140" height="70" as="geometry" />
        </mxCell>
        <mxCell id="ojgTtji4bl1sdhofvII4-19" value="Extends" style="endArrow=block;endSize=16;endFill=0;html=1;rounded=0;exitX=0;exitY=0.5;exitDx=0;exitDy=0;" edge="1" parent="1" source="ojgTtji4bl1sdhofvII4-18" target="ojgTtji4bl1sdhofvII4-17">
          <mxGeometry width="160" relative="1" as="geometry">
            <mxPoint x="558.94" y="612.5" as="sourcePoint" />
            <mxPoint x="481.99999999999994" y="657.5" as="targetPoint" />
          </mxGeometry>
        </mxCell>
        <mxCell id="ojgTtji4bl1sdhofvII4-20" value="Tőrlés" style="ellipse;whiteSpace=wrap;html=1;" vertex="1" parent="1">
          <mxGeometry x="581" y="706" width="140" height="70" as="geometry" />
        </mxCell>
        <mxCell id="ojgTtji4bl1sdhofvII4-21" value="Extends" style="endArrow=block;endSize=16;endFill=0;html=1;rounded=0;exitX=0;exitY=0.5;exitDx=0;exitDy=0;entryX=1;entryY=1;entryDx=0;entryDy=0;" edge="1" parent="1" source="ojgTtji4bl1sdhofvII4-20" target="ojgTtji4bl1sdhofvII4-17">
          <mxGeometry width="160" relative="1" as="geometry">
            <mxPoint x="586" y="645" as="sourcePoint" />
            <mxPoint x="510.27356432815304" y="678.7219283851193" as="targetPoint" />
          </mxGeometry>
        </mxCell>
        <mxCell id="ojgTtji4bl1sdhofvII4-22" value="" style="endArrow=classic;html=1;rounded=0;exitX=0.5;exitY=0.5;exitDx=0;exitDy=0;exitPerimeter=0;entryX=0;entryY=0.5;entryDx=0;entryDy=0;" edge="1" parent="1" source="ojgTtji4bl1sdhofvII4-13" target="ojgTtji4bl1sdhofvII4-14">
          <mxGeometry width="50" height="50" relative="1" as="geometry">
            <mxPoint x="155" y="608" as="sourcePoint" />
            <mxPoint x="322" y="501" as="targetPoint" />
          </mxGeometry>
        </mxCell>
        <mxCell id="ojgTtji4bl1sdhofvII4-23" value="" style="endArrow=classic;html=1;rounded=0;exitX=0.5;exitY=0.5;exitDx=0;exitDy=0;exitPerimeter=0;entryX=0;entryY=0.5;entryDx=0;entryDy=0;" edge="1" parent="1" source="ojgTtji4bl1sdhofvII4-13" target="ojgTtji4bl1sdhofvII4-17">
          <mxGeometry width="50" height="50" relative="1" as="geometry">
            <mxPoint x="218" y="669" as="sourcePoint" />
            <mxPoint x="395" y="575" as="targetPoint" />
          </mxGeometry>
        </mxCell>
        <mxCell id="ojgTtji4bl1sdhofvII4-24" value="Menü" style="ellipse;whiteSpace=wrap;html=1;" vertex="1" parent="1">
          <mxGeometry x="385" y="921" width="140" height="70" as="geometry" />
        </mxCell>
        <mxCell id="ojgTtji4bl1sdhofvII4-25" value="" style="endArrow=classic;html=1;rounded=0;exitX=0.5;exitY=0.5;exitDx=0;exitDy=0;exitPerimeter=0;entryX=0.343;entryY=0;entryDx=0;entryDy=0;entryPerimeter=0;" edge="1" parent="1" source="ojgTtji4bl1sdhofvII4-13" target="ojgTtji4bl1sdhofvII4-24">
          <mxGeometry width="50" height="50" relative="1" as="geometry">
            <mxPoint x="218" y="669" as="sourcePoint" />
            <mxPoint x="388" y="702" as="targetPoint" />
            <Array as="points" />
          </mxGeometry>
        </mxCell>
      </root>
    </mxGraphModel>
  </diagram>
</mxfile>
